<svg width="241" height="39" viewBox="0 0 241 39" fill="none" xmlns="http://www.w3.org/2000/svg">
<path d="M17.2119 26.9648V2.45312H25.1221V26.9648C25.1221 29.3411 24.585 31.3919 23.5107 33.1172C22.4528 34.8262 21.0124 36.1527 19.1895 37.0967C17.3828 38.0244 15.3402 38.4883 13.0615 38.4883C10.7178 38.4883 8.63444 38.0977 6.81152 37.3164C4.98861 36.5189 3.55632 35.3063 2.51465 33.6787C1.48926 32.0348 0.976562 29.9434 0.976562 27.4043H8.93555C8.93555 28.6576 9.09017 29.6504 9.39941 30.3828C9.72493 31.099 10.1969 31.6035 10.8154 31.8965C11.4339 32.1895 12.1826 32.3359 13.0615 32.3359C13.9079 32.3359 14.6403 32.1325 15.2588 31.7256C15.8773 31.3024 16.3574 30.6921 16.6992 29.8945C17.041 29.0807 17.2119 28.1042 17.2119 26.9648ZM29.4678 25.0605V24.5479C29.4678 22.611 29.7445 20.8288 30.2979 19.2012C30.8512 17.5573 31.665 16.1331 32.7393 14.9287C33.8135 13.7243 35.1318 12.7884 36.6943 12.1211C38.2568 11.4375 40.0472 11.0957 42.0654 11.0957C44.1162 11.0957 45.9229 11.4375 47.4854 12.1211C49.0641 12.7884 50.3906 13.7243 51.4648 14.9287C52.5391 16.1331 53.3529 17.5573 53.9062 19.2012C54.4596 20.8288 54.7363 22.611 54.7363 24.5479V25.0605C54.7363 26.9811 54.4596 28.7633 53.9062 30.4072C53.3529 32.0348 52.5391 33.459 51.4648 34.6797C50.3906 35.8841 49.0723 36.82 47.5098 37.4873C45.9473 38.1546 44.1488 38.4883 42.1143 38.4883C40.096 38.4883 38.2975 38.1546 36.7188 37.4873C35.14 36.82 33.8135 35.8841 32.7393 34.6797C31.665 33.459 30.8512 32.0348 30.2979 30.4072C29.7445 28.7633 29.4678 26.9811 29.4678 25.0605ZM37.1094 24.5479V25.0605C37.1094 26.1022 37.1908 27.0788 37.3535 27.9902C37.5326 28.9017 37.8174 29.6992 38.208 30.3828C38.5986 31.0664 39.1113 31.6035 39.7461 31.9941C40.3971 32.3685 41.1865 32.5557 42.1143 32.5557C43.042 32.5557 43.8232 32.3685 44.458 31.9941C45.0928 31.6035 45.6055 31.0664 45.9961 30.3828C46.3867 29.6992 46.6634 28.9017 46.8262 27.9902C47.0052 27.0788 47.0947 26.1022 47.0947 25.0605V24.5479C47.0947 23.5225 47.0052 22.5622 46.8262 21.667C46.6634 20.7555 46.3867 19.9499 45.9961 19.25C45.6055 18.5501 45.0846 18.0049 44.4336 17.6143C43.7988 17.2236 43.0094 17.0283 42.0654 17.0283C41.154 17.0283 40.3809 17.2236 39.7461 17.6143C39.1113 18.0049 38.5986 18.5501 38.208 19.25C37.8174 19.9499 37.5326 20.7555 37.3535 21.667C37.1908 22.5622 37.1094 23.5225 37.1094 24.5479ZM58.7646 0.5H66.3818V31.7256L65.6006 38H58.7646V0.5ZM82.8613 24.499V25.0117C82.8613 27.0137 82.6497 28.8366 82.2266 30.4805C81.8197 32.1243 81.193 33.5485 80.3467 34.7529C79.5003 35.9411 78.4342 36.8607 77.1484 37.5117C75.8626 38.1628 74.349 38.4883 72.6074 38.4883C70.9961 38.4883 69.6126 38.1546 68.457 37.4873C67.3014 36.8037 66.333 35.8597 65.5518 34.6553C64.7705 33.4508 64.1357 32.043 63.6475 30.4316C63.1755 28.8203 62.8092 27.0869 62.5488 25.2314V24.3525C62.8092 22.4971 63.1755 20.7637 63.6475 19.1523C64.1357 17.541 64.7705 16.1331 65.5518 14.9287C66.333 13.7243 67.2933 12.7884 68.4326 12.1211C69.5882 11.4375 70.9635 11.0957 72.5586 11.0957C74.3164 11.0957 75.8382 11.4294 77.124 12.0967C78.4261 12.764 79.5003 13.6999 80.3467 14.9043C81.193 16.0924 81.8197 17.5085 82.2266 19.1523C82.6497 20.7799 82.8613 22.5622 82.8613 24.499ZM75.2441 25.0117V24.499C75.2441 23.4899 75.1709 22.5378 75.0244 21.6426C74.8942 20.7474 74.6582 19.958 74.3164 19.2744C73.9909 18.5745 73.527 18.0293 72.9248 17.6387C72.3389 17.2318 71.582 17.0283 70.6543 17.0283C69.7428 17.0283 68.9697 17.1829 68.335 17.4922C67.7002 17.8014 67.1875 18.2409 66.7969 18.8105C66.4062 19.3639 66.1214 20.0394 65.9424 20.8369C65.7633 21.6344 65.6657 22.5215 65.6494 23.498V26.0859C65.6657 27.388 65.8366 28.5273 66.1621 29.5039C66.4876 30.4805 67.0166 31.2373 67.749 31.7744C68.4814 32.2952 69.4661 32.5557 70.7031 32.5557C71.6471 32.5557 72.4121 32.3766 72.998 32.0186C73.6003 31.6442 74.056 31.1234 74.3652 30.4561C74.6908 29.7887 74.9186 28.9912 75.0488 28.0635C75.179 27.1357 75.2441 26.1185 75.2441 25.0117Z" fill="#FF6C3E"/>
<path d="M106.689 28.8447C106.689 28.1123 106.576 27.4613 106.348 26.8916C106.136 26.3219 105.754 25.8011 105.2 25.3291C104.647 24.8571 103.866 24.4014 102.856 23.9619C101.864 23.5062 100.594 23.0423 99.0479 22.5703C97.3551 22.0495 95.7926 21.4717 94.3604 20.8369C92.9443 20.1859 91.7074 19.4372 90.6494 18.5908C89.5915 17.7282 88.7695 16.7435 88.1836 15.6367C87.5977 14.5137 87.3047 13.2197 87.3047 11.7549C87.3047 10.3063 87.6058 8.98796 88.208 7.7998C88.8265 6.61165 89.6973 5.58626 90.8203 4.72363C91.9596 3.84473 93.3024 3.16927 94.8486 2.69727C96.3949 2.20898 98.1038 1.96484 99.9756 1.96484C102.612 1.96484 104.883 2.45312 106.787 3.42969C108.708 4.40625 110.181 5.71647 111.206 7.36035C112.248 9.00423 112.769 10.819 112.769 12.8047H106.689C106.689 11.6328 106.437 10.5993 105.933 9.7041C105.444 8.79264 104.696 8.0765 103.687 7.55566C102.694 7.03483 101.432 6.77441 99.9023 6.77441C98.4538 6.77441 97.2493 6.99414 96.2891 7.43359C95.3288 7.87305 94.6126 8.46712 94.1406 9.21582C93.6686 9.96452 93.4326 10.8109 93.4326 11.7549C93.4326 12.4222 93.5872 13.0326 93.8965 13.5859C94.2057 14.123 94.6777 14.6276 95.3125 15.0996C95.9473 15.5553 96.7448 15.9867 97.7051 16.3936C98.6654 16.8005 99.7965 17.1911 101.099 17.5654C103.068 18.1514 104.785 18.8024 106.25 19.5186C107.715 20.2184 108.936 21.016 109.912 21.9111C110.889 22.8063 111.621 23.8236 112.109 24.9629C112.598 26.0859 112.842 27.3636 112.842 28.7959C112.842 30.2933 112.541 31.6442 111.938 32.8486C111.336 34.0368 110.474 35.054 109.351 35.9004C108.244 36.7305 106.909 37.3734 105.347 37.8291C103.8 38.2686 102.075 38.4883 100.171 38.4883C98.4619 38.4883 96.7773 38.2604 95.1172 37.8047C93.4733 37.349 91.9759 36.6572 90.625 35.7295C89.2741 34.7855 88.1999 33.6136 87.4023 32.2139C86.6048 30.7979 86.2061 29.1458 86.2061 27.2578H92.334C92.334 28.4134 92.5293 29.3981 92.9199 30.2119C93.3268 31.0257 93.8883 31.693 94.6045 32.2139C95.3206 32.7184 96.1507 33.0928 97.0947 33.3369C98.055 33.5811 99.0804 33.7031 100.171 33.7031C101.603 33.7031 102.799 33.4997 103.76 33.0928C104.736 32.6859 105.469 32.1162 105.957 31.3838C106.445 30.6514 106.689 29.805 106.689 28.8447ZM129.785 11.584V15.8809H114.893V11.584H129.785ZM119.189 5.11426H125.073V30.7002C125.073 31.514 125.187 32.1406 125.415 32.5801C125.659 33.0033 125.993 33.2881 126.416 33.4346C126.839 33.5811 127.336 33.6543 127.905 33.6543C128.312 33.6543 128.703 33.6299 129.077 33.5811C129.451 33.5322 129.753 33.4834 129.98 33.4346L130.005 37.9268C129.517 38.0732 128.947 38.2035 128.296 38.3174C127.661 38.4313 126.929 38.4883 126.099 38.4883C124.748 38.4883 123.551 38.2523 122.51 37.7803C121.468 37.292 120.654 36.5026 120.068 35.4121C119.482 34.3216 119.189 32.873 119.189 31.0664V5.11426ZM149.219 32.7021V20.1045C149.219 19.1605 149.048 18.3467 148.706 17.6631C148.364 16.9795 147.843 16.4505 147.144 16.0762C146.46 15.7018 145.597 15.5146 144.556 15.5146C143.595 15.5146 142.765 15.6774 142.065 16.0029C141.366 16.3285 140.82 16.7679 140.43 17.3213C140.039 17.8747 139.844 18.5013 139.844 19.2012H133.984C133.984 18.1595 134.237 17.1504 134.741 16.1738C135.246 15.1973 135.978 14.3265 136.938 13.5615C137.899 12.7965 139.046 12.1943 140.381 11.7549C141.715 11.3154 143.213 11.0957 144.873 11.0957C146.859 11.0957 148.617 11.4294 150.146 12.0967C151.693 12.764 152.905 13.7731 153.784 15.124C154.679 16.4587 155.127 18.1351 155.127 20.1533V31.8965C155.127 33.1009 155.208 34.1833 155.371 35.1436C155.55 36.0876 155.802 36.9095 156.128 37.6094V38H150.098C149.821 37.3652 149.601 36.5596 149.438 35.583C149.292 34.5902 149.219 33.6299 149.219 32.7021ZM150.073 21.9355L150.122 25.5732H145.898C144.808 25.5732 143.848 25.679 143.018 25.8906C142.188 26.0859 141.496 26.3789 140.942 26.7695C140.389 27.1602 139.974 27.6322 139.697 28.1855C139.421 28.7389 139.282 29.3656 139.282 30.0654C139.282 30.7653 139.445 31.4082 139.771 31.9941C140.096 32.5638 140.568 33.0114 141.187 33.3369C141.821 33.6624 142.586 33.8252 143.481 33.8252C144.686 33.8252 145.736 33.5811 146.631 33.0928C147.542 32.5882 148.258 31.9779 148.779 31.2617C149.3 30.5293 149.577 29.8376 149.609 29.1865L151.514 31.7988C151.318 32.4661 150.985 33.1823 150.513 33.9473C150.041 34.7122 149.422 35.4447 148.657 36.1445C147.909 36.8281 147.005 37.3896 145.947 37.8291C144.906 38.2686 143.701 38.4883 142.334 38.4883C140.609 38.4883 139.071 38.1465 137.72 37.4629C136.369 36.763 135.311 35.8271 134.546 34.6553C133.781 33.4671 133.398 32.1243 133.398 30.627C133.398 29.2272 133.659 27.9902 134.18 26.916C134.717 25.8255 135.498 24.9141 136.523 24.1816C137.565 23.4492 138.835 22.8958 140.332 22.5215C141.829 22.1309 143.538 21.9355 145.459 21.9355H150.073ZM173.389 11.584V15.8809H158.496V11.584H173.389ZM162.793 5.11426H168.677V30.7002C168.677 31.514 168.791 32.1406 169.019 32.5801C169.263 33.0033 169.596 33.2881 170.02 33.4346C170.443 33.5811 170.939 33.6543 171.509 33.6543C171.916 33.6543 172.306 33.6299 172.681 33.5811C173.055 33.5322 173.356 33.4834 173.584 33.4346L173.608 37.9268C173.12 38.0732 172.55 38.2035 171.899 38.3174C171.265 38.4313 170.532 38.4883 169.702 38.4883C168.351 38.4883 167.155 38.2523 166.113 37.7803C165.072 37.292 164.258 36.5026 163.672 35.4121C163.086 34.3216 162.793 32.873 162.793 31.0664V5.11426ZM184.229 11.584V38H178.32V11.584H184.229ZM177.93 4.65039C177.93 3.75521 178.223 3.01465 178.809 2.42871C179.411 1.8265 180.241 1.52539 181.299 1.52539C182.34 1.52539 183.162 1.8265 183.765 2.42871C184.367 3.01465 184.668 3.75521 184.668 4.65039C184.668 5.5293 184.367 6.26172 183.765 6.84766C183.162 7.43359 182.34 7.72656 181.299 7.72656C180.241 7.72656 179.411 7.43359 178.809 6.84766C178.223 6.26172 177.93 5.5293 177.93 4.65039ZM189.551 25.085V24.5234C189.551 22.6191 189.827 20.8532 190.381 19.2256C190.934 17.5817 191.732 16.1576 192.773 14.9531C193.831 13.7324 195.117 12.7884 196.631 12.1211C198.161 11.4375 199.886 11.0957 201.807 11.0957C203.743 11.0957 205.469 11.4375 206.982 12.1211C208.512 12.7884 209.806 13.7324 210.864 14.9531C211.922 16.1576 212.728 17.5817 213.281 19.2256C213.835 20.8532 214.111 22.6191 214.111 24.5234V25.085C214.111 26.9893 213.835 28.7552 213.281 30.3828C212.728 32.0104 211.922 33.4346 210.864 34.6553C209.806 35.8597 208.521 36.8037 207.007 37.4873C205.493 38.1546 203.776 38.4883 201.855 38.4883C199.919 38.4883 198.185 38.1546 196.655 37.4873C195.142 36.8037 193.856 35.8597 192.798 34.6553C191.74 33.4346 190.934 32.0104 190.381 30.3828C189.827 28.7552 189.551 26.9893 189.551 25.085ZM195.435 24.5234V25.085C195.435 26.2731 195.557 27.3962 195.801 28.4541C196.045 29.512 196.427 30.4398 196.948 31.2373C197.469 32.0348 198.136 32.6615 198.95 33.1172C199.764 33.5729 200.732 33.8008 201.855 33.8008C202.946 33.8008 203.89 33.5729 204.688 33.1172C205.501 32.6615 206.169 32.0348 206.689 31.2373C207.21 30.4398 207.593 29.512 207.837 28.4541C208.097 27.3962 208.228 26.2731 208.228 25.085V24.5234C208.228 23.3516 208.097 22.2448 207.837 21.2031C207.593 20.1452 207.202 19.2093 206.665 18.3955C206.144 17.5817 205.477 16.9469 204.663 16.4912C203.866 16.0192 202.913 15.7832 201.807 15.7832C200.7 15.7832 199.74 16.0192 198.926 16.4912C198.128 16.9469 197.469 17.5817 196.948 18.3955C196.427 19.2093 196.045 20.1452 195.801 21.2031C195.557 22.2448 195.435 23.3516 195.435 24.5234ZM224.878 17.2236V38H218.994V11.584H224.536L224.878 17.2236ZM223.828 23.8154L221.924 23.791C221.94 21.9193 222.201 20.2021 222.705 18.6396C223.226 17.0771 223.942 15.7344 224.854 14.6113C225.781 13.4883 226.888 12.6257 228.174 12.0234C229.46 11.4049 230.892 11.0957 232.471 11.0957C233.74 11.0957 234.888 11.2747 235.913 11.6328C236.955 11.9746 237.842 12.5361 238.574 13.3174C239.323 14.0986 239.893 15.1159 240.283 16.3691C240.674 17.6061 240.869 19.1279 240.869 20.9346V38H234.961V20.9102C234.961 19.6406 234.774 18.6396 234.399 17.9072C234.041 17.1585 233.512 16.6296 232.812 16.3203C232.129 15.9948 231.274 15.832 230.249 15.832C229.24 15.832 228.337 16.0436 227.539 16.4668C226.742 16.89 226.066 17.4678 225.513 18.2002C224.976 18.9326 224.561 19.779 224.268 20.7393C223.975 21.6995 223.828 22.7249 223.828 23.8154Z" fill="white"/>
</svg>
